<?xml version="1.0" encoding="UTF-8" ?>
<!DOCTYPE svg PUBLIC "-//W3C//DTD SVG 1.1//EN" "http://www.w3.org/Graphics/SVG/1.1/DTD/svg11.dtd">
<svg width="500pt" height="500pt" viewBox="0 0 500 500" version="1.1" xmlns="http://www.w3.org/2000/svg">
<path fill="#ffffff" d=" M 0.00 0.00 L 500.00 0.00 L 500.00 500.00 L 0.00 500.00 L 0.00 0.00 Z" />
<path fill="#000000" d=" M 201.79 35.66 C 209.19 33.08 217.25 33.25 224.97 33.91 C 234.31 33.60 243.68 33.41 252.99 34.32 C 258.22 35.33 263.09 37.58 268.20 39.03 C 265.98 39.60 263.77 40.21 261.56 40.82 C 263.60 42.06 265.50 43.78 268.00 43.97 C 272.87 44.47 275.95 48.71 278.91 52.14 C 280.63 54.47 282.47 56.81 283.64 59.48 C 284.63 63.61 280.90 66.75 277.87 68.83 C 274.06 70.68 269.97 72.01 265.74 72.49 C 258.47 75.56 250.27 72.77 242.93 75.37 C 238.05 76.24 232.86 75.38 228.20 77.31 C 212.02 80.05 196.40 85.71 181.50 92.60 C 167.68 99.31 154.65 107.49 141.78 115.85 C 137.78 118.77 133.73 121.67 130.06 125.01 C 122.47 132.44 114.50 139.62 108.36 148.34 C 95.61 165.36 86.21 184.96 81.23 205.62 C 79.58 209.08 80.26 213.12 78.56 216.57 C 77.54 221.57 78.28 226.85 76.44 231.71 C 75.53 244.65 75.73 257.68 76.52 270.63 C 78.47 274.84 77.49 279.63 78.70 284.00 C 80.47 287.62 79.51 291.88 81.29 295.49 C 90.86 336.94 114.38 375.71 148.70 401.31 C 157.80 408.11 167.33 414.37 177.55 419.36 C 190.43 424.90 203.64 429.80 217.35 432.76 C 221.90 434.77 227.15 433.49 231.72 435.52 C 247.78 436.78 263.96 436.60 280.04 435.61 C 284.84 435.14 289.75 436.01 294.49 434.92 C 297.47 434.20 300.50 433.73 303.53 433.34 C 303.85 432.23 304.17 431.12 304.49 430.03 C 316.04 427.32 326.85 422.15 337.80 417.75 C 340.09 418.24 342.35 418.87 344.61 419.50 C 352.25 415.03 359.76 410.34 367.44 405.94 C 369.10 404.96 370.67 403.83 372.12 402.57 C 378.38 396.30 385.92 391.49 392.02 385.06 C 396.11 380.78 400.81 376.97 404.08 371.99 C 403.49 370.37 402.56 368.91 401.78 367.41 C 403.91 365.28 405.66 362.81 407.78 360.66 C 410.55 360.21 414.29 360.67 415.71 357.62 C 416.74 355.79 414.68 354.36 413.95 352.88 L 413.43 352.13 C 426.00 334.36 434.62 313.91 439.94 292.93 C 440.35 289.25 442.40 285.97 442.03 282.15 C 442.61 282.27 443.77 282.50 444.34 282.62 C 444.25 286.76 443.09 290.77 442.72 294.88 C 442.85 295.27 443.11 296.04 443.24 296.42 C 444.93 300.16 442.46 303.84 441.56 307.43 C 439.70 312.11 438.58 317.12 436.16 321.57 C 431.47 331.08 427.28 340.83 422.19 350.15 C 428.31 342.15 434.09 333.60 437.27 323.96 C 439.04 316.34 444.38 310.18 446.20 302.60 C 446.69 301.14 447.25 299.71 447.71 298.24 C 447.85 296.74 447.96 295.24 448.03 293.74 C 448.14 291.93 448.29 290.12 448.59 288.34 C 448.85 287.70 449.08 287.06 449.28 286.41 C 449.98 283.80 450.15 281.10 450.76 278.48 C 451.09 277.24 451.46 276.00 451.73 274.74 C 452.32 270.65 452.01 266.45 452.97 262.41 C 454.02 258.12 453.72 253.66 454.47 249.33 C 456.67 246.25 456.40 242.43 454.04 239.54 C 453.79 234.12 454.48 228.54 453.01 223.26 C 451.41 218.61 452.66 213.43 450.51 208.92 C 449.16 198.95 445.85 189.41 442.32 180.00 C 439.52 171.01 434.81 162.77 431.78 153.86 C 434.09 155.57 436.17 157.60 437.27 160.32 C 440.28 168.56 444.17 176.47 447.38 184.64 C 447.63 183.17 447.79 181.70 447.88 180.22 C 446.76 177.96 444.63 176.27 443.99 173.78 C 442.64 169.21 441.67 164.51 439.57 160.21 C 440.09 160.19 441.13 160.15 441.65 160.13 C 442.76 162.33 443.98 164.47 445.20 166.62 C 452.87 180.43 459.08 195.06 463.85 210.10 C 465.12 221.71 464.40 233.42 464.55 245.07 C 465.85 248.68 465.95 252.52 466.39 256.30 C 468.34 262.31 468.34 268.76 468.07 275.02 C 468.11 277.54 465.91 278.91 464.29 280.46 C 464.21 285.76 464.00 291.06 463.73 296.36 C 463.47 297.22 463.20 298.07 462.94 298.93 C 461.83 303.69 461.24 308.58 459.35 313.14 C 457.43 316.12 455.57 319.15 454.11 322.40 C 453.38 323.93 452.59 325.46 452.26 327.14 C 450.91 333.40 448.55 339.39 447.29 345.67 C 447.00 345.97 446.44 346.57 446.16 346.87 C 445.75 349.92 445.89 353.01 445.73 356.09 C 437.00 369.92 426.43 382.42 415.66 394.68 C 401.51 412.77 384.72 428.95 365.14 441.09 C 345.30 452.78 323.12 460.07 300.79 464.92 C 296.28 466.71 291.16 465.47 286.72 467.58 C 268.87 469.07 250.91 469.00 233.02 468.27 C 228.67 468.01 224.14 468.28 220.04 466.56 C 215.87 465.85 211.49 466.20 207.57 464.36 C 203.27 464.11 199.33 462.43 195.14 461.61 C 186.71 458.91 178.06 456.78 169.99 453.01 C 150.77 445.16 132.84 434.30 116.64 421.34 C 108.69 413.46 99.61 406.61 92.98 397.49 C 90.67 393.92 87.84 390.73 84.81 387.76 C 81.56 384.56 79.07 380.72 76.83 376.78 C 75.65 377.79 74.47 378.80 73.30 379.82 C 69.77 372.35 63.67 366.10 61.61 357.98 C 60.41 350.36 56.26 343.72 53.70 336.55 C 50.08 326.42 47.13 315.53 39.77 307.34 C 39.61 306.25 39.56 305.16 39.63 304.07 C 41.02 296.62 39.21 289.22 38.12 281.88 C 38.04 275.71 38.47 269.43 36.71 263.42 C 35.23 253.49 36.27 243.38 35.61 233.38 C 35.64 230.02 34.53 226.81 33.46 223.67 C 33.44 217.55 33.72 211.39 34.46 205.32 C 36.50 201.20 35.40 196.37 37.35 192.23 C 40.56 177.13 46.51 162.77 52.71 148.65 C 53.96 148.28 54.48 147.44 54.27 146.13 C 63.43 128.64 75.18 112.25 89.03 98.05 C 93.80 93.82 98.38 89.37 103.06 85.04 C 125.57 65.81 151.85 51.05 180.00 41.90 C 187.18 39.51 194.35 37.06 201.79 35.66 Z" />
<path fill="#dfdfdf" d=" M 339.82 74.52 C 344.00 73.51 347.84 75.35 351.10 77.81 C 354.01 80.12 358.61 80.78 359.95 84.62 C 359.44 84.53 358.42 84.34 357.91 84.25 C 351.24 82.59 345.32 78.55 339.82 74.52 Z" />
<path fill="#e0e0e0" d=" M 367.83 73.94 C 371.20 75.20 375.35 76.47 376.10 80.57 C 375.62 80.52 374.66 80.42 374.18 80.37 C 372.67 80.14 371.04 80.13 369.72 79.30 C 368.52 77.78 368.37 75.74 367.83 73.94 Z" />
<path fill="#242424" d=" M 374.18 80.37 C 374.66 80.42 375.62 80.52 376.10 80.57 C 376.36 80.59 376.90 80.64 377.17 80.67 C 377.33 80.94 377.66 81.48 377.82 81.75 C 379.10 83.87 380.51 85.93 382.15 87.80 C 379.47 85.35 376.95 82.73 374.18 80.37 Z" />
<path fill="#737373" d=" M 377.82 81.75 C 382.92 83.76 387.21 87.29 391.78 90.25 C 395.06 92.69 398.99 94.75 400.87 98.57 C 397.50 98.06 394.63 96.16 391.74 94.49 C 388.39 92.50 384.94 90.57 382.15 87.80 C 380.51 85.93 379.10 83.87 377.82 81.75 Z" />
<path fill="#070707" d=" M 357.91 84.25 C 358.42 84.34 359.44 84.53 359.95 84.62 C 366.03 87.05 370.75 91.69 376.35 94.92 C 375.87 95.39 375.41 95.87 374.97 96.37 C 369.11 92.58 363.83 87.96 357.91 84.25 Z" />
<path fill="#000000" d=" M 376.35 94.92 C 376.62 94.66 377.17 94.16 377.44 93.91 C 377.42 94.43 377.37 95.49 377.35 96.02 C 376.67 96.35 375.98 96.68 375.30 97.01 C 374.99 97.15 374.36 97.43 374.05 97.58 C 374.28 97.27 374.74 96.67 374.97 96.37 C 375.41 95.87 375.87 95.39 376.35 94.92 Z" />
<path fill="#393939" d=" M 375.30 97.01 C 375.98 96.68 376.67 96.35 377.35 96.02 C 377.82 96.01 378.77 95.98 379.24 95.97 C 382.63 99.66 386.05 103.34 389.75 106.74 C 391.46 108.39 393.11 110.09 394.82 111.73 C 393.14 112.19 391.67 111.60 390.56 110.33 C 385.76 105.57 380.51 101.30 375.30 97.01 Z" />
<path fill="#fbfbfb" d=" M 400.87 98.57 C 404.56 97.55 408.41 98.23 412.15 98.54 C 411.23 99.51 410.32 100.48 409.41 101.44 C 409.66 102.07 409.92 102.70 410.19 103.33 C 411.20 103.28 412.21 103.23 413.22 103.19 C 413.20 104.29 413.18 105.39 413.13 106.50 L 412.69 107.24 C 411.23 108.87 410.98 111.54 412.86 112.98 C 420.88 120.67 429.32 128.31 434.67 138.22 C 435.97 140.38 435.91 142.97 436.64 145.32 C 439.27 152.12 444.60 157.33 448.20 163.58 C 447.19 164.59 446.19 165.60 445.20 166.62 C 443.98 164.47 442.76 162.33 441.65 160.13 C 441.22 159.19 440.81 158.25 440.43 157.30 C 440.24 156.90 439.85 156.11 439.66 155.72 C 437.47 152.13 435.11 148.64 432.41 145.43 C 431.74 144.66 431.07 143.90 430.39 143.15 C 426.06 138.41 422.59 132.99 418.89 127.76 C 418.45 128.10 417.56 128.78 417.11 129.12 C 420.49 134.82 423.04 141.06 427.35 146.15 C 428.08 147.04 428.81 147.93 429.54 148.84 C 429.75 149.32 430.18 150.28 430.40 150.75 C 430.85 151.79 431.31 152.83 431.78 153.86 C 434.81 162.77 439.52 171.01 442.32 180.00 C 441.57 180.15 440.07 180.44 439.33 180.59 C 435.59 173.03 433.87 164.32 428.23 157.84 C 423.00 150.49 418.99 142.35 413.76 134.99 C 407.99 126.85 402.84 117.90 394.82 111.73 C 393.11 110.09 391.46 108.39 389.75 106.74 C 394.81 105.83 396.11 99.73 400.87 98.57 Z" />
<path fill="#070707" d=" M 412.86 112.98 C 410.98 111.54 411.23 108.87 412.69 107.24 C 416.93 112.33 422.14 116.56 426.01 121.99 C 437.20 135.12 445.86 150.19 453.46 165.62 C 454.42 167.29 454.41 169.26 454.67 171.12 C 451.49 169.64 449.99 166.36 448.20 163.58 C 444.60 157.33 439.27 152.12 436.64 145.32 C 435.91 142.97 435.97 140.38 434.67 138.22 C 429.32 128.31 420.88 120.67 412.86 112.98 Z" />
<path fill="#252525" d=" M 394.82 111.73 C 402.84 117.90 407.99 126.85 413.76 134.99 C 418.99 142.35 423.00 150.49 428.23 157.84 C 427.94 157.57 427.36 157.03 427.07 156.76 C 420.02 146.31 414.04 134.94 405.16 125.83 C 401.26 121.17 396.66 117.04 393.37 111.91 L 394.82 111.73 Z" />
<path fill="#dddddd" d=" M 417.11 129.12 C 417.56 128.78 418.45 128.10 418.89 127.76 C 422.59 132.99 426.06 138.41 430.39 143.15 C 429.37 144.14 428.36 145.14 427.35 146.15 C 423.04 141.06 420.49 134.82 417.11 129.12 Z" />
<path fill="#828282" d=" M 427.35 146.15 C 428.36 145.14 429.37 144.14 430.39 143.15 C 431.07 143.90 431.74 144.66 432.41 145.43 C 431.41 146.53 430.45 147.67 429.54 148.84 C 428.81 147.93 428.08 147.04 427.35 146.15 Z" />
<path fill="#c5c5c5" d=" M 52.71 148.65 C 51.83 146.92 52.35 146.08 54.27 146.13 C 54.48 147.44 53.96 148.28 52.71 148.65 Z" />
<path fill="#242424" d=" M 429.54 148.84 C 430.45 147.67 431.41 146.53 432.41 145.43 C 431.83 147.24 431.17 149.02 430.40 150.75 C 430.18 150.28 429.75 149.32 429.54 148.84 Z" />
<path fill="#b0b0b0" d=" M 432.41 145.43 C 435.11 148.64 437.47 152.13 439.66 155.72 C 436.61 155.45 438.67 159.75 440.43 157.30 C 440.81 158.25 441.22 159.19 441.65 160.13 C 441.13 160.15 440.09 160.19 439.57 160.21 C 438.99 160.23 437.84 160.29 437.27 160.32 C 436.17 157.60 434.09 155.57 431.78 153.86 C 431.31 152.83 430.85 151.79 430.40 150.75 C 431.17 149.02 431.83 147.24 432.41 145.43 Z" />
<path fill="#474747" d=" M 440.43 157.30 C 438.67 159.75 436.61 155.45 439.66 155.72 C 439.85 156.11 440.24 156.90 440.43 157.30 Z" />
<path fill="#dfdfdf" d=" M 427.07 156.76 C 427.36 157.03 427.94 157.57 428.23 157.84 C 433.87 164.32 435.59 173.03 439.33 180.59 C 439.43 181.06 439.63 181.99 439.73 182.46 C 439.24 182.34 438.24 182.10 437.75 181.98 C 437.36 181.90 436.58 181.73 436.19 181.65 C 435.02 176.13 432.89 170.83 429.72 166.15 C 428.09 163.32 425.13 160.21 427.07 156.76 Z" />
<path fill="#e3e3e3" d=" M 437.27 160.32 C 437.84 160.29 438.99 160.23 439.57 160.21 C 441.67 164.51 442.64 169.21 443.99 173.78 C 444.63 176.27 446.76 177.96 447.88 180.22 C 447.79 181.70 447.63 183.17 447.38 184.64 C 444.17 176.47 440.28 168.56 437.27 160.32 Z" />
<path fill="#b3b3b3" d=" M 437.75 181.98 C 438.24 182.10 439.24 182.34 439.73 182.46 C 441.05 187.03 442.25 191.65 443.94 196.10 C 443.20 196.52 442.46 196.93 441.73 197.34 C 441.43 197.49 440.83 197.80 440.52 197.95 C 440.06 192.54 438.51 187.34 437.75 181.98 Z" />
<path fill="#888888" d=" M 441.73 197.34 C 442.46 196.93 443.20 196.52 443.94 196.10 C 444.01 198.12 444.10 200.13 444.22 202.15 C 443.65 202.14 442.52 202.13 441.96 202.13 C 441.89 200.53 441.81 198.93 441.73 197.34 Z" />
<path fill="#c4c4c4" d=" M 441.96 202.13 C 442.52 202.13 443.65 202.14 444.22 202.15 C 444.85 202.15 446.10 202.16 446.72 202.17 C 446.46 202.44 445.92 202.99 445.66 203.26 C 444.95 203.97 444.25 204.67 443.55 205.38 C 443.28 205.64 442.75 206.17 442.49 206.43 C 442.30 205.00 442.13 203.56 441.96 202.13 Z" />
<path fill="#989898" d=" M 443.55 205.38 C 444.25 204.67 444.95 203.97 445.66 203.26 C 445.89 205.02 446.05 206.79 446.15 208.57 C 445.58 209.91 445.01 211.25 444.52 212.62 C 444.16 210.21 443.87 207.79 443.55 205.38 Z" />
<path fill="#cfcfcf" d=" M 446.15 208.57 C 446.46 208.27 447.09 207.67 447.40 207.37 C 448.14 211.82 448.17 216.37 447.36 220.82 C 446.28 218.21 443.91 215.59 444.52 212.62 C 445.01 211.25 445.58 209.91 446.15 208.57 Z" />
<path fill="#343434" d=" M 31.96 235.01 C 32.06 230.71 31.66 226.35 32.64 222.14 L 33.46 223.67 C 34.53 226.81 35.64 230.02 35.61 233.38 C 33.19 241.37 35.52 250.02 32.24 257.82 C 31.75 250.23 32.01 242.61 31.96 235.01 Z" />
<path fill="#bbbbbb" d=" M 447.85 255.68 C 448.54 244.89 447.21 233.97 448.98 223.27 C 449.53 225.99 450.02 228.74 450.19 231.53 C 450.19 237.69 451.06 244.05 454.47 249.33 C 453.72 253.66 454.02 258.12 452.97 262.41 C 452.01 266.45 452.32 270.65 451.73 274.74 C 449.09 268.75 448.38 262.14 447.85 255.68 Z" />
<path fill="#eaeaea" d=" M 453.01 223.26 C 454.48 228.54 453.79 234.12 454.04 239.54 C 454.06 242.81 454.25 246.07 454.47 249.33 C 451.06 244.05 450.19 237.69 450.19 231.53 C 450.96 228.72 452.05 226.01 453.01 223.26 Z" />
<path fill="#646464" d=" M 32.24 257.82 C 35.52 250.02 33.19 241.37 35.61 233.38 C 36.27 243.38 35.23 253.49 36.71 263.42 C 35.81 264.43 34.90 265.45 33.99 266.47 C 33.35 265.49 32.72 264.50 32.11 263.51 C 31.87 261.63 31.76 259.67 32.24 257.82 Z" />
<path fill="#858585" d=" M 454.04 239.54 C 456.40 242.43 456.67 246.25 454.47 249.33 C 454.25 246.07 454.06 242.81 454.04 239.54 Z" />
<path fill="#787878" d=" M 444.40 263.40 C 443.31 260.37 445.84 257.64 447.85 255.68 C 448.38 262.14 449.09 268.75 451.73 274.74 C 451.46 276.00 451.09 277.24 450.76 278.48 C 449.77 277.55 448.78 276.62 447.79 275.70 C 447.86 279.32 448.32 282.91 449.28 286.41 C 449.08 287.06 448.85 287.70 448.59 288.34 C 448.16 288.56 447.30 289.00 446.87 289.23 C 446.40 290.89 446.18 292.61 445.96 294.32 C 445.04 295.00 444.13 295.70 443.24 296.42 C 443.11 296.04 442.85 295.27 442.72 294.88 C 443.09 290.77 444.25 286.76 444.34 282.62 C 444.94 281.18 445.47 279.72 445.91 278.24 C 446.02 277.84 446.24 277.04 446.35 276.64 C 447.59 273.62 448.00 270.28 446.09 267.42 C 445.54 266.08 444.94 264.75 444.40 263.40 Z" />
<path fill="#9e9e9e" d=" M 32.11 263.51 C 32.72 264.50 33.35 265.49 33.99 266.47 C 33.97 268.42 33.92 270.38 33.87 272.34 C 30.96 270.38 32.27 266.43 32.11 263.51 Z" />
<path fill="#4c4c4c" d=" M 36.71 263.42 C 38.47 269.43 38.04 275.71 38.12 281.88 C 37.34 282.42 36.57 282.97 35.81 283.53 C 35.48 283.78 34.84 284.29 34.51 284.54 C 33.99 280.50 33.85 276.41 33.87 272.34 C 33.92 270.38 33.97 268.42 33.99 266.47 C 34.90 265.45 35.81 264.43 36.71 263.42 Z" />
<path fill="#000000" d=" M 444.40 263.40 C 444.94 264.75 445.54 266.08 446.09 267.42 C 446.14 270.49 446.18 273.57 446.35 276.64 C 446.24 277.04 446.02 277.84 445.91 278.24 C 445.38 278.19 444.32 278.10 443.79 278.05 C 443.86 277.62 443.99 276.77 444.06 276.35 C 444.00 274.79 443.96 273.24 443.93 271.69 C 443.95 268.92 444.24 266.16 444.40 263.40 Z" />
<path fill="#b0b0b0" d=" M 446.09 267.42 C 448.00 270.28 447.59 273.62 446.35 276.64 C 446.18 273.57 446.14 270.49 446.09 267.42 Z" />
<path fill="#bbbbbb" d=" M 442.17 276.00 C 442.30 274.40 442.36 272.59 443.93 271.69 C 443.96 273.24 444.00 274.79 444.06 276.35 C 443.59 276.26 442.65 276.09 442.17 276.00 Z" />
<path fill="#818181" d=" M 442.17 276.00 C 442.65 276.09 443.59 276.26 444.06 276.35 C 443.99 276.77 443.86 277.62 443.79 278.05 C 443.34 277.93 442.45 277.70 442.00 277.59 C 442.04 277.19 442.13 276.40 442.17 276.00 Z" />
<path fill="#bababa" d=" M 447.79 275.70 C 448.78 276.62 449.77 277.55 450.76 278.48 C 450.15 281.10 449.98 283.80 449.28 286.41 C 448.32 282.91 447.86 279.32 447.79 275.70 Z" />
<path fill="#4c4c4c" d=" M 442.00 277.59 C 442.45 277.70 443.34 277.93 443.79 278.05 C 444.32 278.10 445.38 278.19 445.91 278.24 C 445.47 279.72 444.94 281.18 444.34 282.62 C 443.77 282.50 442.61 282.27 442.03 282.15 C 441.99 280.63 441.98 279.11 442.00 277.59 Z" />
<path fill="#393939" d=" M 35.81 283.53 C 36.57 282.97 37.34 282.42 38.12 281.88 C 39.21 289.22 41.02 296.62 39.63 304.07 L 38.79 305.43 C 38.41 303.59 38.21 301.73 37.91 299.88 C 37.60 298.31 37.12 296.77 36.66 295.24 C 35.98 292.86 35.97 290.37 35.90 287.92 C 35.87 286.45 35.84 284.99 35.81 283.53 Z" />
<path fill="#adadad" d=" M 34.51 284.54 C 34.84 284.29 35.48 283.78 35.81 283.53 C 35.84 284.99 35.87 286.45 35.90 287.92 C 35.32 287.87 34.17 287.77 33.59 287.72 C 33.86 286.64 34.17 285.58 34.51 284.54 Z" />
<path fill="#c4c4c4" d=" M 446.87 289.23 C 447.30 289.00 448.16 288.56 448.59 288.34 C 448.29 290.12 448.14 291.93 448.03 293.74 C 447.51 293.88 446.48 294.17 445.96 294.32 C 446.18 292.61 446.40 290.89 446.87 289.23 Z" />
<path fill="#e1e1e1" d=" M 463.73 296.36 C 464.81 294.53 466.20 292.90 467.52 291.24 C 467.95 294.23 468.19 297.25 468.33 300.27 C 467.62 300.10 466.19 299.74 465.48 299.56 C 464.85 299.40 463.57 299.09 462.94 298.93 C 463.20 298.07 463.47 297.22 463.73 296.36 Z" />
<path fill="#878787" d=" M 443.24 296.42 C 444.13 295.70 445.04 295.00 445.96 294.32 C 446.48 294.17 447.51 293.88 448.03 293.74 C 447.96 295.24 447.85 296.74 447.71 298.24 C 447.32 298.09 446.55 297.78 446.16 297.63 C 445.18 297.23 444.21 296.83 443.24 296.42 Z" />
<path fill="#b1b1b1" d=" M 36.66 295.24 C 37.12 296.77 37.60 298.31 37.91 299.88 C 37.40 299.89 36.37 299.91 35.85 299.92 C 36.11 298.35 36.37 296.79 36.66 295.24 Z" />
<path fill="#fafafa" d=" M 443.24 296.42 C 444.21 296.83 445.18 297.23 446.16 297.63 C 446.17 299.29 446.18 300.94 446.20 302.60 C 444.38 310.18 439.04 316.34 437.27 323.96 C 436.89 323.16 436.52 322.36 436.16 321.57 C 438.58 317.12 439.70 312.11 441.56 307.43 C 442.46 303.84 444.93 300.16 443.24 296.42 Z" />
<path fill="#393939" d=" M 446.16 297.63 C 446.55 297.78 447.32 298.09 447.71 298.24 C 447.25 299.71 446.69 301.14 446.20 302.60 C 446.18 300.94 446.17 299.29 446.16 297.63 Z" />
<path fill="#b1b1b1" d=" M 459.35 313.14 C 461.24 308.58 461.83 303.69 462.94 298.93 C 463.57 299.09 464.85 299.40 465.48 299.56 C 467.09 305.92 464.80 312.84 462.08 318.59 C 461.21 316.75 460.27 314.95 459.35 313.14 Z" />
<path fill="#4e4e4e" d=" M 39.77 307.34 C 47.13 315.53 50.08 326.42 53.70 336.55 C 56.26 343.72 60.41 350.36 61.61 357.98 L 61.53 359.20 C 56.09 353.41 53.91 345.59 50.33 338.68 C 46.27 330.86 43.85 322.36 40.88 314.09 C 40.06 311.94 39.90 309.61 39.77 307.34 Z" />
<path fill="#646464" d=" M 454.11 322.40 C 455.57 319.15 457.43 316.12 459.35 313.14 C 460.27 314.95 461.21 316.75 462.08 318.59 C 461.17 323.23 459.56 327.79 457.52 332.07 C 457.01 331.88 455.99 331.51 455.48 331.32 C 457.42 326.23 459.76 321.19 460.34 315.71 C 458.17 317.84 456.12 320.10 454.11 322.40 Z" />
<path fill="#fafafa" d=" M 454.11 322.40 C 456.12 320.10 458.17 317.84 460.34 315.71 C 459.76 321.19 457.42 326.23 455.48 331.32 C 455.14 332.20 454.81 333.10 454.50 334.00 C 454.12 335.15 453.74 336.30 453.36 337.45 C 451.84 340.53 449.89 343.40 447.29 345.67 C 448.55 339.39 450.91 333.40 452.26 327.14 C 452.59 325.46 453.38 323.93 454.11 322.40 Z" />
<path fill="#737373" d=" M 422.19 350.15 C 427.28 340.83 431.47 331.08 436.16 321.57 C 436.52 322.36 436.89 323.16 437.27 323.96 C 434.09 333.60 428.31 342.15 422.19 350.15 Z" />
<path fill="#b5b5b5" d=" M 454.50 334.00 C 454.81 333.10 455.14 332.20 455.48 331.32 C 455.99 331.51 457.01 331.88 457.52 332.07 C 457.74 333.53 457.88 335.00 457.93 336.49 C 457.47 336.22 456.55 335.69 456.09 335.43 C 455.55 334.95 455.02 334.47 454.50 334.00 Z" />
<path fill="#747474" d=" M 454.50 334.00 C 455.02 334.47 455.55 334.95 456.09 335.43 C 456.12 335.94 456.18 336.98 456.21 337.49 C 455.50 337.48 454.07 337.46 453.36 337.45 C 453.74 336.30 454.12 335.15 454.50 334.00 Z" />
<path fill="#b4b4b4" d=" M 447.29 345.67 C 449.89 343.40 451.84 340.53 453.36 337.45 C 454.07 337.46 455.50 337.48 456.21 337.49 C 452.58 343.61 451.05 351.10 445.73 356.09 C 445.89 353.01 445.75 349.92 446.16 346.87 C 446.44 346.57 447.00 345.97 447.29 345.67 Z" />
<path fill="#363636" d=" M 407.78 360.66 C 409.01 357.54 411.28 354.88 413.95 352.88 C 414.68 354.36 416.74 355.79 415.71 357.62 C 414.29 360.67 410.55 360.21 407.78 360.66 Z" />
<path fill="#fbfbfb" d=" M 407.91 372.30 C 410.08 367.30 414.05 363.43 418.14 359.97 C 416.51 365.24 412.47 369.38 407.91 372.30 Z" />
<path fill="#8b8b8b" d=" M 406.30 366.22 C 407.69 365.77 408.17 366.26 407.73 367.67 C 406.31 368.12 405.84 367.64 406.30 366.22 Z" />
<path fill="#787878" d=" M 397.91 370.80 C 399.19 369.66 400.46 368.51 401.78 367.41 C 402.56 368.91 403.49 370.37 404.08 371.99 C 400.81 376.97 396.11 380.78 392.02 385.06 C 385.92 391.49 378.38 396.30 372.12 402.57 C 371.70 402.24 370.87 401.59 370.46 401.27 C 370.97 400.53 371.48 399.79 372.00 399.06 C 371.65 398.62 370.95 397.76 370.60 397.32 C 370.39 397.06 369.97 396.54 369.76 396.28 C 370.16 396.44 370.96 396.77 371.36 396.94 C 372.37 397.27 373.49 398.08 374.53 397.31 C 378.46 395.02 381.47 391.51 384.51 388.19 C 382.97 388.79 381.45 389.43 379.95 390.13 C 380.81 388.76 381.71 387.42 382.60 386.08 L 383.44 386.83 C 383.79 387.13 384.49 387.74 384.84 388.05 C 390.62 383.73 395.54 378.39 400.07 372.80 C 399.73 372.49 399.07 371.87 398.73 371.55 L 397.91 370.80 Z" />
<path fill="#cfcfcf" d=" M 404.30 368.27 C 405.69 367.83 406.16 368.31 405.71 369.72 C 404.30 370.15 403.83 369.67 404.30 368.27 Z" />
<path fill="#000000" d=" M 401.17 371.06 C 401.69 371.61 401.69 371.61 401.17 371.06 Z" />
<path fill="#bebebe" d=" M 383.44 386.83 C 387.18 380.66 392.52 375.23 398.73 371.55 C 394.24 377.18 389.05 382.32 383.44 386.83 Z" />
<path fill="#070707" d=" M 398.73 371.55 C 399.07 371.87 399.73 372.49 400.07 372.80 C 395.54 378.39 390.62 383.73 384.84 388.05 C 384.49 387.74 383.79 387.13 383.44 386.83 C 389.05 382.32 394.24 377.18 398.73 371.55 Z" />
<path fill="#252525" d=" M 73.30 379.82 C 74.47 378.80 75.65 377.79 76.83 376.78 C 79.07 380.72 81.56 384.56 84.81 387.76 C 83.35 388.67 81.89 389.57 80.43 390.47 C 78.14 386.86 75.62 383.40 73.30 379.82 Z" />
<path fill="#4e4e4e" d=" M 84.81 387.76 C 87.84 390.73 90.67 393.92 92.98 397.49 C 92.70 398.85 92.39 400.21 92.07 401.56 C 91.72 401.88 91.02 402.50 90.66 402.82 C 87.23 398.72 84.48 394.02 80.43 390.47 C 81.89 389.57 83.35 388.67 84.81 387.76 Z" />
<path fill="#000000" d=" M 379.95 390.13 C 381.45 389.43 382.97 388.79 384.51 388.19 C 381.47 391.51 378.46 395.02 374.53 397.31 C 373.49 398.08 372.37 397.27 371.36 396.94 C 374.42 394.92 376.75 391.93 379.95 390.13 Z" />
<path fill="#e3e3e3" d=" M 92.98 397.49 C 99.61 406.61 108.69 413.46 116.64 421.34 C 117.43 424.16 117.62 427.10 117.92 430.00 C 112.35 426.80 107.75 422.21 104.08 416.98 C 102.17 414.07 99.12 412.36 96.15 410.73 C 93.24 409.15 91.74 406.06 89.95 403.44 L 90.66 402.82 C 91.02 402.50 91.72 401.88 92.07 401.56 C 92.39 400.21 92.70 398.85 92.98 397.49 Z" />
<path fill="#242424" d=" M 350.58 410.57 C 357.61 406.72 364.06 401.94 370.60 397.32 C 370.95 397.76 371.65 398.62 372.00 399.06 C 371.48 399.79 370.97 400.53 370.46 401.27 C 370.87 401.59 371.70 402.24 372.12 402.57 C 370.67 403.83 369.10 404.96 367.44 405.94 C 359.76 410.34 352.25 415.03 344.61 419.50 C 342.35 418.87 340.09 418.24 337.80 417.75 C 341.77 414.88 346.37 413.06 350.58 410.57 Z" />
<path fill="#616161" d=" M 287.30 433.03 C 293.18 432.82 298.76 431.01 304.49 430.03 C 304.17 431.12 303.85 432.23 303.53 433.34 C 300.50 433.73 297.47 434.20 294.49 434.92 C 292.65 434.60 290.79 434.56 288.97 434.18 C 288.55 433.89 287.72 433.32 287.30 433.03 Z" />
</svg>
