<svg xmlns="http://www.w3.org/2000/svg" width="24" height="24" viewBox="0 0 24 24"><path d="M6 23V12c-4.036 0-6 2.715-6 5.5C0 20.307 1.995 23 6 23zm18-5.5c0-2.785-1.964-5.5-6-5.5v11c4.005 0 6-2.693 6-5.5zM12 3.978c-3.88-.008-6.86 2.35-7.743 6.195a8.75 8.75 0 0 0-2.16.716C2.724 5.38 6.414 1 12 1c5.59 0 9.29 4.39 9.916 9.896a8.724 8.724 0 0 0-2.17-.72c-.88-3.85-3.866-6.206-7.746-6.2zM10.85 20.69l.785-4.788.803 3.446a.37.37 0 0 0 .703.053l.73-1.85.68 1.58a.37.37 0 0 0 .64.07l.62-.84H17v-.73h-1.39a.37.37 0 0 0-.3.15l-.34.47-.78-1.81a.37.37 0 0 0-.683.01l-.616 1.58-.95-4.21c-.09-.4-.65-.37-.72.02l-.79 4.86-.8-2.99c-.09-.35-.59-.37-.71-.02l-.6 1.95H7v.74h1.607a.353.353 0 0 0 .315-.23l.298-1.01.906 3.61c.1.39.66.37.723-.03z"/></svg>