<svg xmlns="http://www.w3.org/2000/svg" width="24" height="24" viewBox="0 0 24 24"><path d="M10.77 22a3.45 3.45 0 0 1-2.42 1 3.383 3.383 0 0 1-2.377-.976c-1.27-1.27-1.308-3.563-.024-4.846L10.77 22zM22.66 6.383a2.39 2.39 0 0 1 .63-2.302A2.415 2.415 0 0 0 24 2.37 2.363 2.363 0 0 0 21.63 0a2.42 2.42 0 0 0-1.712.712l-.003.003a2.385 2.385 0 0 1-2.3.627C11.685-.23 6.605 9.162 1.405 6.52L0 7.924 16.075 24l1.405-1.406c-2.64-5.198 6.75-10.28 5.178-16.21zM7.562 10.665l-1.51-1.512C9.25 7.95 14 2.616 17.726 3.703c-3.078.244-6.794 5.266-10.165 6.962zm13.334-7.562z"/></svg>