<svg xmlns="http://www.w3.org/2000/svg" width="24" height="24" viewBox="0 0 24 24"><path d="M19.803 13.207l-.83 1.093-1.553-3.826a.47.47 0 0 0-.437-.306.47.47 0 0 0-.444.32l-1.357 3.665-1.872-8.76A.468.468 0 0 0 12.85 5a.474.474 0 0 0-.474.424l-1.63 10.58L9.09 9.038a.47.47 0 0 0-.917-.033L6.72 13.757l-1.07-2.53a.463.463 0 0 0-.82-.09L3.57 12.942c-.04.058-.017.058-.087.058H.5a.5.5 0 0 0 0 1h3.284a.465.465 0 0 0 .386-.206l.948-1.353 1.24 2.93c.08.187.24.3.433.3.212 0 .39-.14.456-.35l1.324-4.333 1.814 7.63c.068.282.282.383.46.383.203 0 .428-.13.473-.425L12.922 8.15l1.673 7.83a.478.478 0 0 0 .467.395c.202 0 .366-.12.44-.32l1.5-4.05 1.427 3.51a.46.46 0 0 0 .82.1l1.145-1.582c.04-.057.018-.046.087-.046h3.026a.493.493 0 0 0 0-.986h-3.322a.466.466 0 0 0-.383.207z"/></svg>