<svg xmlns="http://www.w3.org/2000/svg" width="24" height="24" viewBox="0 0 24 24"><path d="M15 21c0 1.598-1.392 3-2.97 3S9 22.598 9 21h6zm.137-17.055a2.103 2.103 0 0 1-1.04-1.82v-.003C14.097.95 13.157 0 12 0S9.903.95 9.903 2.122v.003a2.1 2.1 0 0 1-1.04 1.82C4.193 6.655 6.876 15.66 2 17.25V19h20v-1.75c-4.877-1.59-2.193-10.597-6.863-13.305zM12 1a1 1 0 0 1 0 2 1 1 0 0 1 0-2zM5.55 17c1.188-1.667 1.604-3.89 1.963-5.815.447-2.39.87-4.648 2.354-5.51 1.38-.8 2.956-.76 4.267 0 1.485.862 1.907 3.12 2.354 5.51.36 1.924.775 4.148 1.964 5.815H5.55z"/></svg>