<svg xmlns="http://www.w3.org/2000/svg" width="24" height="24" viewBox="0 0 24 24"><path d="M10.77 22a3.45 3.45 0 0 1-2.42 1 3.383 3.383 0 0 1-2.377-.976c-1.27-1.27-1.308-3.563-.024-4.846L10.77 22zM21.63 0a2.42 2.42 0 0 0-1.713.71l-.002.004a2.386 2.386 0 0 1-2.3.627c-5.93-1.57-11.01 7.82-16.21 5.18L0 7.93 16.075 24l1.404-1.406c-2.65-5.197 6.75-10.28 5.17-16.21a2.388 2.388 0 0 1 .62-2.298v-.003A2.42 2.42 0 0 0 24 2.37C24 1.06 22.945 0 21.63 0zm-3.48 13.443c-2.025 2.957-2.728 4.233-3.14 6.668L3.89 8.99l.527-.088c2.237-.375 4.312-1.796 6.144-3.05 2.21-1.516 4.51-3.12 6.55-2.575A5.047 5.047 0 0 1 20.73 6.9c.535 2.01-.976 4.212-2.576 6.544zm4.354-10.34z"/></svg>