<svg xmlns="http://www.w3.org/2000/svg" width="24" height="24" viewBox="0 0 24 24"><path d="M18.586 10.08c-1.44 0-1.35 2.803-2.03 4.072a.273.273 0 0 1-.5-.044C15.287 11.744 15.64 6 13.547 6c-2.188 0-1.647 7.433-2.5 10.462-.062.23-.38.25-.473.028-.9-2.16-.8-6.875-2.502-6.875-1.76 0-1.61 3.95-2.3 5.54a.27.27 0 0 1-.494.01C4.773 14.115 4.612 12 2.712 12H.5a.5.5 0 0 0 0 1H2.71c1.572 0 1.038 3.484 2.854 3.484 1.684 0 1.502-3.79 2.223-5.47a.252.252 0 0 1 .465.006c.805 2.047.79 6.98 2.64 6.98 2.078 0 1.338-7.856 2.444-10.62a.26.26 0 0 1 .478-.013c1.03 2.25.487 8.126 2.344 8.126 1.64 0 1.737-2.706 2.23-4.038a.26.26 0 0 1 .474-.027c.516 1 .846 2.572 2.4 2.572H23.5a.5.5 0 0 0 0-1h-2.234c-1.323 0-1.117-2.92-2.68-2.92z"/></svg>